<mxfile host="app.diagrams.net" agent="Mozilla/5.0 (Windows NT 10.0; Win64; x64) AppleWebKit/537.36 (KHTML, like Gecko) Chrome/131.0.0.0 Safari/537.36 Edg/131.0.0.0" version="24.9.0">
  <diagram name="Страница — 1" id="hBS6xxu8CjBi0X18eEhy">
    <mxGraphModel dx="888" dy="792" grid="1" gridSize="10" guides="1" tooltips="1" connect="1" arrows="1" fold="1" page="1" pageScale="1" pageWidth="827" pageHeight="1169" math="0" shadow="0">
      <root>
        <mxCell id="0" />
        <mxCell id="1" parent="0" />
        <mxCell id="XVG9OLVSf8GxNEhEKJuT-3" value="&lt;p style=&quot;margin:0px;margin-top:6px;text-align:center;&quot;&gt;&lt;b&gt;Online Store&lt;/b&gt;&lt;/p&gt;&lt;hr size=&quot;1&quot; style=&quot;border-style:solid;&quot;&gt;&lt;p style=&quot;margin:0px;margin-left:8px;&quot;&gt;&lt;br&gt;&lt;/p&gt;" style="align=left;overflow=fill;html=1;dropTarget=0;whiteSpace=wrap;" vertex="1" parent="1">
          <mxGeometry x="100.5" y="30" width="400" height="290" as="geometry" />
        </mxCell>
        <mxCell id="XVG9OLVSf8GxNEhEKJuT-4" value="" style="shape=component;jettyWidth=8;jettyHeight=4;" vertex="1" parent="XVG9OLVSf8GxNEhEKJuT-3">
          <mxGeometry x="1" width="20" height="20" relative="1" as="geometry">
            <mxPoint x="-24" y="4" as="offset" />
          </mxGeometry>
        </mxCell>
        <mxCell id="XVG9OLVSf8GxNEhEKJuT-5" value="«Component»&lt;br&gt;&lt;b&gt;DataBase&lt;/b&gt;" style="html=1;dropTarget=0;whiteSpace=wrap;" vertex="1" parent="1">
          <mxGeometry x="550.5" y="140" width="140" height="70" as="geometry" />
        </mxCell>
        <mxCell id="XVG9OLVSf8GxNEhEKJuT-6" value="" style="shape=module;jettyWidth=8;jettyHeight=4;" vertex="1" parent="XVG9OLVSf8GxNEhEKJuT-5">
          <mxGeometry x="1" width="20" height="20" relative="1" as="geometry">
            <mxPoint x="-27" y="7" as="offset" />
          </mxGeometry>
        </mxCell>
        <mxCell id="XVG9OLVSf8GxNEhEKJuT-10" value="" style="whiteSpace=wrap;html=1;aspect=fixed;" vertex="1" parent="1">
          <mxGeometry x="88" y="92.5" width="25" height="25" as="geometry" />
        </mxCell>
        <mxCell id="XVG9OLVSf8GxNEhEKJuT-13" value="" style="whiteSpace=wrap;html=1;aspect=fixed;" vertex="1" parent="1">
          <mxGeometry x="88" y="252.5" width="25" height="25" as="geometry" />
        </mxCell>
        <mxCell id="XVG9OLVSf8GxNEhEKJuT-14" value="«Component»&lt;br&gt;&lt;b&gt;Admin System&lt;/b&gt;" style="html=1;dropTarget=0;whiteSpace=wrap;" vertex="1" parent="1">
          <mxGeometry x="140.5" y="70" width="140" height="70" as="geometry" />
        </mxCell>
        <mxCell id="XVG9OLVSf8GxNEhEKJuT-15" value="" style="shape=module;jettyWidth=8;jettyHeight=4;" vertex="1" parent="XVG9OLVSf8GxNEhEKJuT-14">
          <mxGeometry x="1" width="20" height="20" relative="1" as="geometry">
            <mxPoint x="-27" y="7" as="offset" />
          </mxGeometry>
        </mxCell>
        <mxCell id="XVG9OLVSf8GxNEhEKJuT-18" value="" style="rounded=0;orthogonalLoop=1;jettySize=auto;html=1;endArrow=halfCircle;endFill=0;endSize=6;strokeWidth=1;sketch=0;exitX=0;exitY=0.5;exitDx=0;exitDy=0;" edge="1" parent="1" source="XVG9OLVSf8GxNEhEKJuT-10">
          <mxGeometry relative="1" as="geometry">
            <mxPoint x="65.5" y="92.5" as="sourcePoint" />
            <mxPoint x="40.5" y="105" as="targetPoint" />
          </mxGeometry>
        </mxCell>
        <mxCell id="XVG9OLVSf8GxNEhEKJuT-21" value="ILoginSys" style="edgeLabel;html=1;align=center;verticalAlign=middle;resizable=0;points=[];" vertex="1" connectable="0" parent="XVG9OLVSf8GxNEhEKJuT-18">
          <mxGeometry x="-0.1832" y="2" relative="1" as="geometry">
            <mxPoint x="-20" y="16" as="offset" />
          </mxGeometry>
        </mxCell>
        <mxCell id="XVG9OLVSf8GxNEhEKJuT-20" value="" style="ellipse;whiteSpace=wrap;html=1;align=center;aspect=fixed;fillColor=none;strokeColor=none;resizable=0;perimeter=centerPerimeter;rotatable=0;allowArrows=0;points=[];outlineConnect=1;" vertex="1" parent="1">
          <mxGeometry x="40.5" y="87.5" width="10" height="10" as="geometry" />
        </mxCell>
        <mxCell id="XVG9OLVSf8GxNEhEKJuT-22" value="«Component»&lt;br&gt;&lt;b&gt;OrderSystem&lt;/b&gt;" style="html=1;dropTarget=0;whiteSpace=wrap;" vertex="1" parent="1">
          <mxGeometry x="340.5" y="230" width="140" height="70" as="geometry" />
        </mxCell>
        <mxCell id="XVG9OLVSf8GxNEhEKJuT-23" value="" style="shape=module;jettyWidth=8;jettyHeight=4;" vertex="1" parent="XVG9OLVSf8GxNEhEKJuT-22">
          <mxGeometry x="1" width="20" height="20" relative="1" as="geometry">
            <mxPoint x="-27" y="7" as="offset" />
          </mxGeometry>
        </mxCell>
        <mxCell id="XVG9OLVSf8GxNEhEKJuT-26" value="«Component»&lt;br&gt;&lt;b&gt;DeliverySystem&lt;/b&gt;" style="html=1;dropTarget=0;whiteSpace=wrap;" vertex="1" parent="1">
          <mxGeometry x="140.5" y="230" width="140" height="70" as="geometry" />
        </mxCell>
        <mxCell id="XVG9OLVSf8GxNEhEKJuT-27" value="" style="shape=module;jettyWidth=8;jettyHeight=4;" vertex="1" parent="XVG9OLVSf8GxNEhEKJuT-26">
          <mxGeometry x="1" width="20" height="20" relative="1" as="geometry">
            <mxPoint x="-27" y="7" as="offset" />
          </mxGeometry>
        </mxCell>
        <mxCell id="XVG9OLVSf8GxNEhEKJuT-28" value="" style="endArrow=none;html=1;rounded=0;entryX=1;entryY=0.5;entryDx=0;entryDy=0;exitX=0;exitY=0.5;exitDx=0;exitDy=0;" edge="1" parent="1" source="XVG9OLVSf8GxNEhEKJuT-29" target="XVG9OLVSf8GxNEhEKJuT-10">
          <mxGeometry width="50" height="50" relative="1" as="geometry">
            <mxPoint x="50.5" y="160" as="sourcePoint" />
            <mxPoint x="250.5" y="180" as="targetPoint" />
          </mxGeometry>
        </mxCell>
        <mxCell id="XVG9OLVSf8GxNEhEKJuT-29" value="" style="whiteSpace=wrap;html=1;aspect=fixed;" vertex="1" parent="1">
          <mxGeometry x="130.5" y="92.5" width="25" height="25" as="geometry" />
        </mxCell>
        <mxCell id="XVG9OLVSf8GxNEhEKJuT-30" value="" style="whiteSpace=wrap;html=1;aspect=fixed;" vertex="1" parent="1">
          <mxGeometry x="130.5" y="252.5" width="25" height="25" as="geometry" />
        </mxCell>
        <mxCell id="XVG9OLVSf8GxNEhEKJuT-31" value="" style="rounded=0;orthogonalLoop=1;jettySize=auto;html=1;endArrow=halfCircle;endFill=0;endSize=6;strokeWidth=1;sketch=0;exitX=0;exitY=0.5;exitDx=0;exitDy=0;" edge="1" parent="1" source="XVG9OLVSf8GxNEhEKJuT-13">
          <mxGeometry relative="1" as="geometry">
            <mxPoint x="70.5" y="240" as="sourcePoint" />
            <mxPoint x="40" y="264.76" as="targetPoint" />
          </mxGeometry>
        </mxCell>
        <mxCell id="XVG9OLVSf8GxNEhEKJuT-32" value="IDeliverySys" style="edgeLabel;html=1;align=center;verticalAlign=middle;resizable=0;points=[];" vertex="1" connectable="0" parent="XVG9OLVSf8GxNEhEKJuT-31">
          <mxGeometry x="-0.1832" y="2" relative="1" as="geometry">
            <mxPoint x="-20" y="16" as="offset" />
          </mxGeometry>
        </mxCell>
        <mxCell id="XVG9OLVSf8GxNEhEKJuT-33" value="" style="endArrow=none;html=1;rounded=0;entryX=1;entryY=0.5;entryDx=0;entryDy=0;exitX=0;exitY=0.5;exitDx=0;exitDy=0;" edge="1" parent="1" source="XVG9OLVSf8GxNEhEKJuT-30" target="XVG9OLVSf8GxNEhEKJuT-13">
          <mxGeometry width="50" height="50" relative="1" as="geometry">
            <mxPoint x="140.5" y="115" as="sourcePoint" />
            <mxPoint x="123.5" y="115" as="targetPoint" />
          </mxGeometry>
        </mxCell>
        <mxCell id="XVG9OLVSf8GxNEhEKJuT-39" value="" style="endArrow=open;endSize=12;dashed=1;html=1;rounded=0;exitX=0;exitY=0.5;exitDx=0;exitDy=0;entryX=1;entryY=0.5;entryDx=0;entryDy=0;" edge="1" parent="1" source="XVG9OLVSf8GxNEhEKJuT-22" target="XVG9OLVSf8GxNEhEKJuT-26">
          <mxGeometry width="160" relative="1" as="geometry">
            <mxPoint x="170.5" y="190" as="sourcePoint" />
            <mxPoint x="330.5" y="190" as="targetPoint" />
          </mxGeometry>
        </mxCell>
        <mxCell id="XVG9OLVSf8GxNEhEKJuT-40" value="" style="rounded=0;orthogonalLoop=1;jettySize=auto;html=1;endArrow=halfCircle;endFill=0;endSize=6;strokeWidth=1;sketch=0;exitX=1;exitY=0.5;exitDx=0;exitDy=0;" edge="1" target="XVG9OLVSf8GxNEhEKJuT-42" parent="1" source="XVG9OLVSf8GxNEhEKJuT-14">
          <mxGeometry relative="1" as="geometry">
            <mxPoint x="270.5" y="195" as="sourcePoint" />
          </mxGeometry>
        </mxCell>
        <mxCell id="XVG9OLVSf8GxNEhEKJuT-41" value="" style="rounded=0;orthogonalLoop=1;jettySize=auto;html=1;endArrow=oval;endFill=0;sketch=0;sourcePerimeterSpacing=0;targetPerimeterSpacing=0;endSize=10;exitX=0.5;exitY=0;exitDx=0;exitDy=0;" edge="1" target="XVG9OLVSf8GxNEhEKJuT-42" parent="1" source="XVG9OLVSf8GxNEhEKJuT-22">
          <mxGeometry relative="1" as="geometry">
            <mxPoint x="230.5" y="195" as="sourcePoint" />
          </mxGeometry>
        </mxCell>
        <mxCell id="XVG9OLVSf8GxNEhEKJuT-42" value="" style="ellipse;whiteSpace=wrap;html=1;align=center;aspect=fixed;fillColor=none;strokeColor=none;resizable=0;perimeter=centerPerimeter;rotatable=0;allowArrows=0;points=[];outlineConnect=1;" vertex="1" parent="1">
          <mxGeometry x="330.5" y="150" width="10" height="10" as="geometry" />
        </mxCell>
        <mxCell id="XVG9OLVSf8GxNEhEKJuT-44" value="ICRUDOrder" style="text;html=1;align=center;verticalAlign=middle;resizable=0;points=[];autosize=1;strokeColor=none;fillColor=none;" vertex="1" parent="1">
          <mxGeometry x="320.5" y="120" width="90" height="30" as="geometry" />
        </mxCell>
        <mxCell id="XVG9OLVSf8GxNEhEKJuT-49" value="" style="endArrow=open;endSize=12;dashed=1;html=1;rounded=0;exitX=1;exitY=0.5;exitDx=0;exitDy=0;entryX=0;entryY=0.5;entryDx=0;entryDy=0;" edge="1" parent="1" source="XVG9OLVSf8GxNEhEKJuT-3" target="XVG9OLVSf8GxNEhEKJuT-5">
          <mxGeometry width="160" relative="1" as="geometry">
            <mxPoint x="620.5" y="230" as="sourcePoint" />
            <mxPoint x="540.5" y="150" as="targetPoint" />
          </mxGeometry>
        </mxCell>
      </root>
    </mxGraphModel>
  </diagram>
</mxfile>
